<svg width="208" height="36" viewBox="0 0 208 36" fill="none" xmlns="http://www.w3.org/2000/svg">
<mask id="mask0_131_2445" style="mask-type:luminance" maskUnits="userSpaceOnUse" x="0" y="0" width="36" height="36">
<path d="M0 0H35.7818V35.7818H0V0Z" fill="white"/>
</mask>
<g mask="url(#mask0_131_2445)">
<mask id="mask1_131_2445" style="mask-type:luminance" maskUnits="userSpaceOnUse" x="0" y="0" width="36" height="36">
<path d="M6.85777 0H28.9241C30.7428 0 32.4872 0.722208 33.7738 2.00804C35.0596 3.29458 35.7818 5.03903 35.7818 6.85777V28.9241C35.7818 30.7428 35.0596 32.4872 33.7738 33.7738C32.4872 35.0596 30.7428 35.7818 28.9241 35.7818H6.85777C5.03903 35.7818 3.29458 35.0596 2.00804 33.7738C0.722208 32.4872 0 30.7428 0 28.9241V6.85777C0 5.03903 0.722208 3.29458 2.00804 2.00804C3.29458 0.722208 5.03903 0 6.85777 0Z" fill="white"/>
</mask>
<g mask="url(#mask1_131_2445)">
<path d="M0 0H35.7818V35.7818H0V0Z" fill="#538560"/>
</g>
</g>
<path d="M47.2918 27.3906V9.19062H56.0798C57.6398 9.19062 59.0265 9.42462 60.2398 9.89262C61.4705 10.3606 62.5191 11.0106 63.3858 11.8426C64.2525 12.6746 64.9111 13.6453 65.3618 14.7546C65.8298 15.8466 66.0638 17.0253 66.0638 18.2906C66.0638 19.5733 65.8298 20.7693 65.3618 21.8786C64.9111 22.9706 64.2525 23.9326 63.3858 24.7646C62.5365 25.5793 61.4878 26.2206 60.2398 26.6886C59.0091 27.1566 57.6225 27.3906 56.0798 27.3906H47.2918ZM51.7118 24.3746L51.1138 23.4906H55.9498C56.8685 23.4906 57.6745 23.3606 58.3678 23.1006C59.0785 22.8233 59.6591 22.4506 60.1098 21.9826C60.5778 21.4973 60.9245 20.9426 61.1498 20.3186C61.3925 19.6773 61.5138 19.0013 61.5138 18.2906C61.5138 17.58 61.3925 16.9126 61.1498 16.2886C60.9245 15.6646 60.5778 15.1186 60.1098 14.6506C59.6418 14.1653 59.0611 13.784 58.3678 13.5066C57.6745 13.2293 56.8685 13.0906 55.9498 13.0906H51.0358L51.7118 12.2586V24.3746ZM71.8699 27.3906V9.19062H86.5859V12.9606H76.1599V23.6206H86.8459V27.3906H71.8699ZM74.1059 19.9286V16.3406H85.4159V19.9286H74.1059ZM93.1473 27.3906V9.19062H97.2553L108.825 22.1906L108.123 22.0606C108.019 21.4366 107.941 20.8473 107.889 20.2926C107.837 19.7206 107.785 19.166 107.733 18.6286C107.699 18.0913 107.664 17.5626 107.629 17.0426C107.612 16.5226 107.603 15.9853 107.603 15.4306C107.603 14.876 107.603 14.2953 107.603 13.6886V9.19062H111.893V27.3906H107.733L95.7473 13.9746L96.9173 14.1566C96.9866 14.6593 97.0473 15.136 97.0993 15.5866C97.1513 16.02 97.1946 16.4533 97.2293 16.8866C97.2813 17.32 97.3246 17.762 97.3593 18.2126C97.394 18.646 97.4113 19.1226 97.4113 19.6426C97.4286 20.1453 97.4373 20.7 97.4373 21.3066V27.3906H93.1473ZM117.541 27.3906V24.4526L129.007 11.4526L130.905 13.2726H118.217V9.19062H133.999V12.1026L122.559 25.1286L120.661 23.4906H134.285V27.3906H117.541ZM140.072 27.3906V23.5686H144.154V13.0126H140.072V9.19062H152.682V13.0126H148.574V23.5686H152.682V27.3906H140.072ZM159.848 27.3906V9.19062H163.956L175.526 22.1906L174.824 22.0606C174.72 21.4366 174.642 20.8473 174.59 20.2926C174.538 19.7206 174.486 19.166 174.434 18.6286C174.4 18.0913 174.365 17.5626 174.33 17.0426C174.313 16.5226 174.304 15.9853 174.304 15.4306C174.304 14.876 174.304 14.2953 174.304 13.6886V9.19062H178.594V27.3906H174.434L162.448 13.9746L163.618 14.1566C163.688 14.6593 163.748 15.136 163.8 15.5866C163.852 16.02 163.896 16.4533 163.93 16.8866C163.982 17.32 164.026 17.762 164.06 18.2126C164.095 18.646 164.112 19.1226 164.112 19.6426C164.13 20.1453 164.138 20.7 164.138 21.3066V27.3906H159.848ZM194.772 27.6506C193.264 27.6506 191.869 27.4426 190.586 27.0266C189.321 26.5933 188.229 25.978 187.31 25.1806C186.391 24.366 185.672 23.3693 185.152 22.1906C184.649 21.012 184.398 19.686 184.398 18.2126C184.398 16.8606 184.667 15.6213 185.204 14.4946C185.741 13.3506 186.495 12.354 187.466 11.5046C188.437 10.6553 189.581 9.99662 190.898 9.52862C192.233 9.06062 193.68 8.82662 195.24 8.82662C196.471 8.82662 197.597 8.96529 198.62 9.24262C199.66 9.51996 200.579 9.88396 201.376 10.3346C202.191 10.7853 202.858 11.288 203.378 11.8426L200.7 14.7546C200.215 14.356 199.695 14.0093 199.14 13.7146C198.585 13.42 197.979 13.186 197.32 13.0126C196.679 12.822 195.977 12.7266 195.214 12.7266C194.33 12.7266 193.507 12.8653 192.744 13.1426C191.999 13.42 191.34 13.81 190.768 14.3126C190.213 14.798 189.78 15.3786 189.468 16.0546C189.173 16.7133 189.026 17.4326 189.026 18.2126C189.026 19.1313 189.191 19.9373 189.52 20.6306C189.849 21.324 190.3 21.9046 190.872 22.3726C191.444 22.8233 192.103 23.17 192.848 23.4126C193.593 23.638 194.391 23.7506 195.24 23.7506C195.985 23.7506 196.679 23.664 197.32 23.4906C197.979 23.3173 198.542 23.0833 199.01 22.7886C199.478 22.4766 199.842 22.1126 200.102 21.6966C200.379 21.2806 200.518 20.8213 200.518 20.3186V19.7466L201.116 20.7346H194.85V17.3286H204.704C204.739 17.554 204.765 17.8226 204.782 18.1346C204.799 18.4466 204.808 18.7413 204.808 19.0186C204.825 19.2786 204.834 19.4606 204.834 19.5646C204.834 20.83 204.591 21.9653 204.106 22.9706C203.621 23.976 202.927 24.8253 202.026 25.5186C201.142 26.1946 200.085 26.7233 198.854 27.1046C197.623 27.4686 196.263 27.6506 194.772 27.6506Z" fill="#222523"/>
<path fill-rule="evenodd" clip-rule="evenodd" d="M10.5988 11.2846L10.3608 11.5315L10.3362 11.5561C9.55965 12.3244 8.30955 12.3164 7.54326 11.5315C6.77757 10.7472 6.76976 9.46611 7.51922 8.67075L7.54326 8.64612L7.78186 8.39926L8.44057 7.72702C9.21467 6.93474 10.481 6.93474 11.2575 7.72702C12.0316 8.51992 12.0316 9.82008 11.2575 10.613L10.5988 11.2846ZM21.4981 24.895L21.7307 25.1338L21.9987 25.4078L24.4545 27.9231C25.228 28.716 26.4949 28.716 27.2714 27.9231C28.0455 27.1278 28.0455 25.8307 27.2714 25.0378L22.9063 20.5667C22.1328 19.7744 20.8658 19.7744 20.0893 20.5667L18.6806 22.0097L18.4318 22.2676L15.708 25.0569C14.9345 25.8498 14.9345 27.1469 15.708 27.9422C16.4821 28.7351 17.7514 28.7351 18.5255 27.9422L21.2487 25.1529L21.4981 24.895ZM27.2528 7.84276H27.2552C28.0293 8.63504 28.0293 9.9352 27.2552 10.7281L10.484 27.9041C9.7099 28.6994 8.44057 28.6994 7.66647 27.9041C6.89297 27.1112 6.89297 25.8141 7.66647 25.0187L24.4382 7.84276C25.2117 7.04986 26.4787 7.04986 27.2528 7.84276ZM19.2245 7.81752C19.998 8.61042 19.998 9.90811 19.2245 10.7035L13.1831 16.8915L10.4594 19.6808C9.68586 20.4737 8.41653 20.4737 7.64243 19.6808C6.86833 18.8855 6.86833 17.5878 7.64243 16.7955L10.3656 14.0056L14.4981 9.77329L16.407 7.81752C17.1811 7.02524 18.4504 7.02524 19.2245 7.81752Z" fill="white"/>
</svg>
